<svg width="256" height="64" viewBox="0 0 256 64" fill="none" xmlns="http://www.w3.org/2000/svg">
<rect width="256" height="64" fill="white"/>
<path d="M95.5 46.8H108.5V42C108.5 40.24 107.864 38.7333 106.591 37.48C105.318 36.2267 103.787 35.6 102 35.6C100.212 35.6 98.6823 36.2267 97.4094 37.48C96.1365 38.7333 95.5 40.24 95.5 42V46.8ZM106.591 30.52C107.864 29.2667 108.5 27.76 108.5 26V21.2H95.5V26C95.5 27.76 96.1365 29.2667 97.4094 30.52C98.6823 31.7733 100.212 32.4 102 32.4C103.787 32.4 105.318 31.7733 106.591 30.52ZM89 50V46.8H92.25V42C92.25 40.3733 92.6359 38.8467 93.4078 37.42C94.1797 35.9933 95.2562 34.8533 96.6375 34C95.2562 33.1467 94.1797 32.0067 93.4078 30.58C92.6359 29.1533 92.25 27.6267 92.25 26V21.2H89V18H115V21.2H111.75V26C111.75 27.6267 111.364 29.1533 110.592 30.58C109.82 32.0067 108.744 33.1467 107.362 34C108.744 34.8533 109.82 35.9933 110.592 37.42C111.364 38.8467 111.75 40.3733 111.75 42V46.8H115V50H89Z" fill="black"/>
<path d="M36 47V19H46C49.3333 19 51.76 19.7067 53.28 21.12C54.8267 22.5067 55.6 24.2933 55.6 26.48C55.6 27.92 55.2 29.16 54.4 30.2C53.6 31.2133 52.6133 31.9467 51.44 32.4C53.0933 32.7733 54.4 33.5333 55.36 34.68C56.32 35.8 56.8 37.2667 56.8 39.08C56.8 40.6 56.4667 41.96 55.8 43.16C55.1333 44.3333 54.0667 45.2667 52.6 45.96C51.1333 46.6533 49.2 47 46.8 47H36ZM39.76 43.72H46.8C49.2 43.72 50.84 43.2933 51.72 42.44C52.6 41.56 53.04 40.4 53.04 38.96C53.04 37.4933 52.6 36.3333 51.72 35.48C50.84 34.6 49.1867 34.16 46.76 34.16H39.76V43.72ZM39.76 31.04H46C48.24 31.04 49.7733 30.6267 50.6 29.8C51.4267 28.9733 51.84 27.92 51.84 26.64C51.84 25.3333 51.4267 24.28 50.6 23.48C49.7733 22.68 48.24 22.28 46 22.28H39.76V31.04ZM62.3969 47V25.8H65.9169V47H62.3969ZM64.1569 23C63.4635 23 62.8902 22.7733 62.4369 22.32C61.9835 21.8667 61.7569 21.2933 61.7569 20.6C61.7569 19.9067 61.9835 19.3333 62.4369 18.88C62.8902 18.4267 63.4635 18.2 64.1569 18.2C64.8502 18.2 65.4235 18.4267 65.8769 18.88C66.3302 19.3333 66.5569 19.9067 66.5569 20.6C66.5569 21.2933 66.3302 21.8667 65.8769 22.32C65.4235 22.7733 64.8502 23 64.1569 23ZM80.5 47.2C79.0067 47.2 77.78 46.9733 76.82 46.52C75.8867 46.0667 75.1933 45.3867 74.74 44.48C74.3133 43.5467 74.1 42.3867 74.1 41V28.92H70.9V25.8H74.1V21H77.62V25.8H83.3V28.92H77.62V40.6C77.62 41.8 77.8733 42.6667 78.38 43.2C78.8867 43.7333 79.86 44 81.3 44C82.1 44 82.9 43.96 83.7 43.88V47C83.1933 47.0533 82.6867 47.0933 82.18 47.12C81.6733 47.1733 81.1133 47.2 80.5 47.2ZM129.716 47.4C127.636 47.4 125.702 46.9067 123.916 45.92C122.129 44.9333 120.676 43.4 119.556 41.32C118.462 39.2133 117.916 36.5067 117.916 33.2V32.4C117.916 30 118.236 27.9333 118.876 26.2C119.516 24.4667 120.382 23.04 121.476 21.92C122.569 20.8 123.822 19.9733 125.236 19.44C126.676 18.88 128.169 18.6 129.716 18.6C131.236 18.6 132.622 18.8 133.876 19.2C135.156 19.6 136.276 20.1733 137.236 20.92C138.196 21.6667 138.969 22.5867 139.556 23.68C140.169 24.7733 140.556 26.0133 140.716 27.4H136.716C136.342 25.5867 135.556 24.2267 134.356 23.32C133.156 22.4133 131.609 21.96 129.716 21.96C128.409 21.96 127.156 22.2933 125.956 22.96C124.756 23.6267 123.782 24.7333 123.036 26.28C122.289 27.8 121.916 29.84 121.916 32.4V33.2C121.916 35.2267 122.142 36.9333 122.596 38.32C123.076 39.7067 123.702 40.8267 124.476 41.68C125.249 42.5067 126.089 43.1067 126.996 43.48C127.929 43.8533 128.836 44.04 129.716 44.04C131.796 44.04 133.422 43.5333 134.596 42.52C135.769 41.5067 136.476 40.2 136.716 38.6H140.716C140.502 40.1467 140.076 41.48 139.436 42.6C138.796 43.72 137.982 44.64 136.996 45.36C136.036 46.0533 134.929 46.5733 133.676 46.92C132.449 47.24 131.129 47.4 129.716 47.4ZM152.303 47.2C150.836 47.2 149.636 46.9733 148.703 46.52C147.796 46.04 147.13 45.3067 146.703 44.32C146.303 43.3067 146.103 42 146.103 40.4V19H149.623V40.4C149.623 41.7867 149.85 42.7333 150.303 43.24C150.756 43.7467 151.556 44 152.703 44C152.996 44 153.25 44 153.463 44C153.676 43.9733 153.89 43.9467 154.103 43.92V47.04C153.97 47.0667 153.783 47.0933 153.543 47.12C153.33 47.1467 153.103 47.16 152.863 47.16C152.65 47.1867 152.463 47.2 152.303 47.2ZM167.125 47.4C165.338 47.4 163.658 47.0133 162.085 46.24C160.538 45.44 159.285 44.24 158.325 42.64C157.392 41.04 156.925 39.0267 156.925 36.6V35.8C156.925 33.5067 157.392 31.5867 158.325 30.04C159.285 28.4933 160.538 27.3333 162.085 26.56C163.658 25.7867 165.338 25.4 167.125 25.4C168.938 25.4 170.618 25.7867 172.165 26.56C173.712 27.3333 174.952 28.4933 175.885 30.04C176.845 31.5867 177.325 33.5067 177.325 35.8V36.6C177.325 39.0267 176.845 41.04 175.885 42.64C174.952 44.24 173.712 45.44 172.165 46.24C170.618 47.0133 168.938 47.4 167.125 47.4ZM167.125 44.2C168.218 44.2 169.258 43.96 170.245 43.48C171.258 42.9733 172.085 42.16 172.725 41.04C173.392 39.92 173.725 38.44 173.725 36.6V35.8C173.725 34.0933 173.392 32.72 172.725 31.68C172.085 30.6133 171.258 29.84 170.245 29.36C169.258 28.8533 168.218 28.6 167.125 28.6C166.058 28.6 165.018 28.8533 164.005 29.36C162.992 29.84 162.152 30.6133 161.485 31.68C160.845 32.72 160.525 34.0933 160.525 35.8V36.6C160.525 38.44 160.845 39.92 161.485 41.04C162.152 42.16 162.992 42.9733 164.005 43.48C165.018 43.96 166.058 44.2 167.125 44.2ZM190.509 47.4C188.696 47.4 187.056 47.0133 185.589 46.24C184.149 45.44 183.003 44.24 182.149 42.64C181.323 41.04 180.909 39.0267 180.909 36.6V35.8C180.909 33.5067 181.363 31.5867 182.269 30.04C183.176 28.4933 184.363 27.3333 185.829 26.56C187.296 25.7867 188.856 25.4 190.509 25.4C192.189 25.4 193.629 25.7067 194.829 26.32C196.056 26.9067 197.043 27.72 197.789 28.76C198.536 29.7733 199.043 30.92 199.309 32.2H195.709C195.283 31.1867 194.683 30.3333 193.909 29.64C193.163 28.9467 192.029 28.6 190.509 28.6C189.469 28.6 188.496 28.8533 187.589 29.36C186.683 29.84 185.936 30.6133 185.349 31.68C184.789 32.72 184.509 34.0933 184.509 35.8V36.6C184.509 38.4133 184.789 39.88 185.349 41C185.936 42.12 186.683 42.9333 187.589 43.44C188.496 43.9467 189.469 44.2 190.509 44.2C191.816 44.2 192.909 43.88 193.789 43.24C194.696 42.6 195.336 41.72 195.709 40.6H199.309C198.989 41.9867 198.416 43.2 197.589 44.24C196.763 45.2533 195.749 46.04 194.549 46.6C193.349 47.1333 192.003 47.4 190.509 47.4ZM204.106 47V19H207.626V35.56L217.386 25.8H221.706L212.906 34.56L222.506 47H218.026L210.386 37L207.626 39.6V47H204.106Z" fill="black"/>
</svg>
